<mxfile host="65bd71144e">
    <diagram name="Class" id="hltYwqrPzxvUZZbvoy9N">
        <mxGraphModel dx="1040" dy="581" grid="1" gridSize="10" guides="1" tooltips="1" connect="1" arrows="1" fold="1" page="1" pageScale="1" pageWidth="827" pageHeight="1169" background="#ffffff" math="0" shadow="0">
            <root>
                <mxCell id="Je4-ReYXjOenGjM9LSW_-0"/>
                <mxCell id="Je4-ReYXjOenGjM9LSW_-1" parent="Je4-ReYXjOenGjM9LSW_-0"/>
                <mxCell id="Je4-ReYXjOenGjM9LSW_-3" value="User" style="swimlane;fontStyle=0;childLayout=stackLayout;horizontal=1;startSize=26;fillColor=none;horizontalStack=0;resizeParent=1;resizeParentMax=0;resizeLast=0;collapsible=1;marginBottom=0;" parent="Je4-ReYXjOenGjM9LSW_-1" vertex="1">
                    <mxGeometry x="40" y="40" width="160" height="390" as="geometry"/>
                </mxCell>
                <mxCell id="Je4-ReYXjOenGjM9LSW_-4" value="+ id: string" style="text;strokeColor=none;fillColor=none;align=left;verticalAlign=top;spacingLeft=4;spacingRight=4;overflow=hidden;rotatable=0;points=[[0,0.5],[1,0.5]];portConstraint=eastwest;" parent="Je4-ReYXjOenGjM9LSW_-3" vertex="1">
                    <mxGeometry y="26" width="160" height="26" as="geometry"/>
                </mxCell>
                <mxCell id="Je4-ReYXjOenGjM9LSW_-5" value="+ name: string" style="text;strokeColor=none;fillColor=none;align=left;verticalAlign=top;spacingLeft=4;spacingRight=4;overflow=hidden;rotatable=0;points=[[0,0.5],[1,0.5]];portConstraint=eastwest;" parent="Je4-ReYXjOenGjM9LSW_-3" vertex="1">
                    <mxGeometry y="52" width="160" height="26" as="geometry"/>
                </mxCell>
                <mxCell id="Je4-ReYXjOenGjM9LSW_-6" value="+ cin: string" style="text;strokeColor=none;fillColor=none;align=left;verticalAlign=top;spacingLeft=4;spacingRight=4;overflow=hidden;rotatable=0;points=[[0,0.5],[1,0.5]];portConstraint=eastwest;" parent="Je4-ReYXjOenGjM9LSW_-3" vertex="1">
                    <mxGeometry y="78" width="160" height="26" as="geometry"/>
                </mxCell>
                <mxCell id="Je4-ReYXjOenGjM9LSW_-7" value="+ age: number" style="text;strokeColor=none;fillColor=none;align=left;verticalAlign=top;spacingLeft=4;spacingRight=4;overflow=hidden;rotatable=0;points=[[0,0.5],[1,0.5]];portConstraint=eastwest;" parent="Je4-ReYXjOenGjM9LSW_-3" vertex="1">
                    <mxGeometry y="104" width="160" height="26" as="geometry"/>
                </mxCell>
                <mxCell id="Je4-ReYXjOenGjM9LSW_-8" value="+ phone: string" style="text;strokeColor=none;fillColor=none;align=left;verticalAlign=top;spacingLeft=4;spacingRight=4;overflow=hidden;rotatable=0;points=[[0,0.5],[1,0.5]];portConstraint=eastwest;" parent="Je4-ReYXjOenGjM9LSW_-3" vertex="1">
                    <mxGeometry y="130" width="160" height="26" as="geometry"/>
                </mxCell>
                <mxCell id="Je4-ReYXjOenGjM9LSW_-9" value="+ zipCode: number" style="text;strokeColor=none;fillColor=none;align=left;verticalAlign=top;spacingLeft=4;spacingRight=4;overflow=hidden;rotatable=0;points=[[0,0.5],[1,0.5]];portConstraint=eastwest;" parent="Je4-ReYXjOenGjM9LSW_-3" vertex="1">
                    <mxGeometry y="156" width="160" height="26" as="geometry"/>
                </mxCell>
                <mxCell id="Je4-ReYXjOenGjM9LSW_-10" value="+ city: string" style="text;strokeColor=none;fillColor=none;align=left;verticalAlign=top;spacingLeft=4;spacingRight=4;overflow=hidden;rotatable=0;points=[[0,0.5],[1,0.5]];portConstraint=eastwest;" parent="Je4-ReYXjOenGjM9LSW_-3" vertex="1">
                    <mxGeometry y="182" width="160" height="26" as="geometry"/>
                </mxCell>
                <mxCell id="Je4-ReYXjOenGjM9LSW_-11" value="+ address: string" style="text;strokeColor=none;fillColor=none;align=left;verticalAlign=top;spacingLeft=4;spacingRight=4;overflow=hidden;rotatable=0;points=[[0,0.5],[1,0.5]];portConstraint=eastwest;" parent="Je4-ReYXjOenGjM9LSW_-3" vertex="1">
                    <mxGeometry y="208" width="160" height="26" as="geometry"/>
                </mxCell>
                <mxCell id="Je4-ReYXjOenGjM9LSW_-55" value="+ vaccination: string" style="text;strokeColor=none;fillColor=none;align=left;verticalAlign=top;spacingLeft=4;spacingRight=4;overflow=hidden;rotatable=0;points=[[0,0.5],[1,0.5]];portConstraint=eastwest;" parent="Je4-ReYXjOenGjM9LSW_-3" vertex="1">
                    <mxGeometry y="234" width="160" height="26" as="geometry"/>
                </mxCell>
                <mxCell id="Je4-ReYXjOenGjM9LSW_-56" value="+ region: string" style="text;strokeColor=none;fillColor=none;align=left;verticalAlign=top;spacingLeft=4;spacingRight=4;overflow=hidden;rotatable=0;points=[[0,0.5],[1,0.5]];portConstraint=eastwest;" parent="Je4-ReYXjOenGjM9LSW_-3" vertex="1">
                    <mxGeometry y="260" width="160" height="26" as="geometry"/>
                </mxCell>
                <mxCell id="Je4-ReYXjOenGjM9LSW_-57" value="+ center: string" style="text;strokeColor=none;fillColor=none;align=left;verticalAlign=top;spacingLeft=4;spacingRight=4;overflow=hidden;rotatable=0;points=[[0,0.5],[1,0.5]];portConstraint=eastwest;" parent="Je4-ReYXjOenGjM9LSW_-3" vertex="1">
                    <mxGeometry y="286" width="160" height="26" as="geometry"/>
                </mxCell>
                <mxCell id="Je4-ReYXjOenGjM9LSW_-58" value="+ appointment: date" style="text;strokeColor=none;fillColor=none;align=left;verticalAlign=top;spacingLeft=4;spacingRight=4;overflow=hidden;rotatable=0;points=[[0,0.5],[1,0.5]];portConstraint=eastwest;" parent="Je4-ReYXjOenGjM9LSW_-3" vertex="1">
                    <mxGeometry y="312" width="160" height="26" as="geometry"/>
                </mxCell>
                <mxCell id="Je4-ReYXjOenGjM9LSW_-59" value="+ sideEffects: boolean" style="text;strokeColor=none;fillColor=none;align=left;verticalAlign=top;spacingLeft=4;spacingRight=4;overflow=hidden;rotatable=0;points=[[0,0.5],[1,0.5]];portConstraint=eastwest;" parent="Je4-ReYXjOenGjM9LSW_-3" vertex="1">
                    <mxGeometry y="338" width="160" height="26" as="geometry"/>
                </mxCell>
                <mxCell id="Je4-ReYXjOenGjM9LSW_-60" value="+ email: string" style="text;strokeColor=none;fillColor=none;align=left;verticalAlign=top;spacingLeft=4;spacingRight=4;overflow=hidden;rotatable=0;points=[[0,0.5],[1,0.5]];portConstraint=eastwest;" parent="Je4-ReYXjOenGjM9LSW_-3" vertex="1">
                    <mxGeometry y="364" width="160" height="26" as="geometry"/>
                </mxCell>
                <mxCell id="Je4-ReYXjOenGjM9LSW_-34" value="Center" style="swimlane;fontStyle=0;childLayout=stackLayout;horizontal=1;startSize=26;fillColor=none;horizontalStack=0;resizeParent=1;resizeParentMax=0;resizeLast=0;collapsible=1;marginBottom=0;" parent="Je4-ReYXjOenGjM9LSW_-1" vertex="1">
                    <mxGeometry x="440" y="536" width="160" height="104" as="geometry"/>
                </mxCell>
                <mxCell id="Je4-ReYXjOenGjM9LSW_-35" value="+ id: string" style="text;strokeColor=none;fillColor=none;align=left;verticalAlign=top;spacingLeft=4;spacingRight=4;overflow=hidden;rotatable=0;points=[[0,0.5],[1,0.5]];portConstraint=eastwest;" parent="Je4-ReYXjOenGjM9LSW_-34" vertex="1">
                    <mxGeometry y="26" width="160" height="26" as="geometry"/>
                </mxCell>
                <mxCell id="Je4-ReYXjOenGjM9LSW_-36" value="+ name: string" style="text;strokeColor=none;fillColor=none;align=left;verticalAlign=top;spacingLeft=4;spacingRight=4;overflow=hidden;rotatable=0;points=[[0,0.5],[1,0.5]];portConstraint=eastwest;" parent="Je4-ReYXjOenGjM9LSW_-34" vertex="1">
                    <mxGeometry y="52" width="160" height="26" as="geometry"/>
                </mxCell>
                <mxCell id="Je4-ReYXjOenGjM9LSW_-37" value="+ region: ObjectId" style="text;strokeColor=none;fillColor=none;align=left;verticalAlign=top;spacingLeft=4;spacingRight=4;overflow=hidden;rotatable=0;points=[[0,0.5],[1,0.5]];portConstraint=eastwest;" parent="Je4-ReYXjOenGjM9LSW_-34" vertex="1">
                    <mxGeometry y="78" width="160" height="26" as="geometry"/>
                </mxCell>
                <mxCell id="Je4-ReYXjOenGjM9LSW_-39" style="edgeStyle=none;html=1;entryX=0;entryY=0.5;entryDx=0;entryDy=0;endArrow=none;endFill=0;exitX=1.016;exitY=-0.24;exitDx=0;exitDy=0;exitPerimeter=0;" parent="Je4-ReYXjOenGjM9LSW_-1" source="Je4-ReYXjOenGjM9LSW_-51" target="Je4-ReYXjOenGjM9LSW_-36" edge="1">
                    <mxGeometry relative="1" as="geometry">
                        <mxPoint x="598.56" y="161.53600000000006" as="targetPoint"/>
                        <Array as="points"/>
                    </mxGeometry>
                </mxCell>
                <mxCell id="Je4-ReYXjOenGjM9LSW_-40" value="*..1" style="text;html=1;align=center;verticalAlign=middle;resizable=0;points=[];autosize=1;strokeColor=none;fillColor=none;" parent="Je4-ReYXjOenGjM9LSW_-1" vertex="1">
                    <mxGeometry x="399" y="565" width="30" height="20" as="geometry"/>
                </mxCell>
                <mxCell id="Je4-ReYXjOenGjM9LSW_-41" value="1..*" style="text;html=1;align=center;verticalAlign=middle;resizable=0;points=[];autosize=1;strokeColor=none;fillColor=none;" parent="Je4-ReYXjOenGjM9LSW_-1" vertex="1">
                    <mxGeometry x="210" y="565" width="30" height="20" as="geometry"/>
                </mxCell>
                <mxCell id="Je4-ReYXjOenGjM9LSW_-46" value="Manager" style="swimlane;fontStyle=0;childLayout=stackLayout;horizontal=1;startSize=26;fillColor=none;horizontalStack=0;resizeParent=1;resizeParentMax=0;resizeLast=0;collapsible=1;marginBottom=0;" parent="Je4-ReYXjOenGjM9LSW_-1" vertex="1">
                    <mxGeometry x="40" y="528" width="160" height="130" as="geometry"/>
                </mxCell>
                <mxCell id="Je4-ReYXjOenGjM9LSW_-47" value="+ id: string" style="text;strokeColor=none;fillColor=none;align=left;verticalAlign=top;spacingLeft=4;spacingRight=4;overflow=hidden;rotatable=0;points=[[0,0.5],[1,0.5]];portConstraint=eastwest;" parent="Je4-ReYXjOenGjM9LSW_-46" vertex="1">
                    <mxGeometry y="26" width="160" height="26" as="geometry"/>
                </mxCell>
                <mxCell id="Je4-ReYXjOenGjM9LSW_-50" value="+ email: email" style="text;strokeColor=none;fillColor=none;align=left;verticalAlign=top;spacingLeft=4;spacingRight=4;overflow=hidden;rotatable=0;points=[[0,0.5],[1,0.5]];portConstraint=eastwest;" parent="Je4-ReYXjOenGjM9LSW_-46" vertex="1">
                    <mxGeometry y="52" width="160" height="26" as="geometry"/>
                </mxCell>
                <mxCell id="Je4-ReYXjOenGjM9LSW_-51" value="+ password: string" style="text;strokeColor=none;fillColor=none;align=left;verticalAlign=top;spacingLeft=4;spacingRight=4;overflow=hidden;rotatable=0;points=[[0,0.5],[1,0.5]];portConstraint=eastwest;" parent="Je4-ReYXjOenGjM9LSW_-46" vertex="1">
                    <mxGeometry y="78" width="160" height="26" as="geometry"/>
                </mxCell>
                <mxCell id="Je4-ReYXjOenGjM9LSW_-52" value="+ region: string" style="text;strokeColor=none;fillColor=none;align=left;verticalAlign=top;spacingLeft=4;spacingRight=4;overflow=hidden;rotatable=0;points=[[0,0.5],[1,0.5]];portConstraint=eastwest;" parent="Je4-ReYXjOenGjM9LSW_-46" vertex="1">
                    <mxGeometry y="104" width="160" height="26" as="geometry"/>
                </mxCell>
                <mxCell id="mbBpHzZWobPo72GrB3_Z-0" style="edgeStyle=none;html=1;entryX=0.5;entryY=0.981;entryDx=0;entryDy=0;entryPerimeter=0;endArrow=none;endFill=0;" parent="Je4-ReYXjOenGjM9LSW_-1" source="Je4-ReYXjOenGjM9LSW_-61" target="Je4-ReYXjOenGjM9LSW_-52" edge="1">
                    <mxGeometry relative="1" as="geometry"/>
                </mxCell>
                <mxCell id="Je4-ReYXjOenGjM9LSW_-61" value="Admin" style="swimlane;fontStyle=0;childLayout=stackLayout;horizontal=1;startSize=26;fillColor=none;horizontalStack=0;resizeParent=1;resizeParentMax=0;resizeLast=0;collapsible=1;marginBottom=0;" parent="Je4-ReYXjOenGjM9LSW_-1" vertex="1">
                    <mxGeometry x="40" y="740" width="160" height="104" as="geometry"/>
                </mxCell>
                <mxCell id="Je4-ReYXjOenGjM9LSW_-62" value="+ id: string" style="text;strokeColor=none;fillColor=none;align=left;verticalAlign=top;spacingLeft=4;spacingRight=4;overflow=hidden;rotatable=0;points=[[0,0.5],[1,0.5]];portConstraint=eastwest;" parent="Je4-ReYXjOenGjM9LSW_-61" vertex="1">
                    <mxGeometry y="26" width="160" height="26" as="geometry"/>
                </mxCell>
                <mxCell id="Je4-ReYXjOenGjM9LSW_-63" value="+ email: email" style="text;strokeColor=none;fillColor=none;align=left;verticalAlign=top;spacingLeft=4;spacingRight=4;overflow=hidden;rotatable=0;points=[[0,0.5],[1,0.5]];portConstraint=eastwest;" parent="Je4-ReYXjOenGjM9LSW_-61" vertex="1">
                    <mxGeometry y="52" width="160" height="26" as="geometry"/>
                </mxCell>
                <mxCell id="Je4-ReYXjOenGjM9LSW_-64" value="+ password: string" style="text;strokeColor=none;fillColor=none;align=left;verticalAlign=top;spacingLeft=4;spacingRight=4;overflow=hidden;rotatable=0;points=[[0,0.5],[1,0.5]];portConstraint=eastwest;" parent="Je4-ReYXjOenGjM9LSW_-61" vertex="1">
                    <mxGeometry y="78" width="160" height="26" as="geometry"/>
                </mxCell>
            </root>
        </mxGraphModel>
    </diagram>
    <diagram id="N9rBPqY2RjM6zucBbA17" name="Use Case">
        <mxGraphModel dx="1040" dy="581" grid="1" gridSize="10" guides="1" tooltips="1" connect="1" arrows="1" fold="1" page="1" pageScale="1" pageWidth="827" pageHeight="1169" background="#ffffff" math="0" shadow="0">
            <root>
                <mxCell id="Mt3Vj4nCImg9GtHoOcer-0"/>
                <mxCell id="Mt3Vj4nCImg9GtHoOcer-1" parent="Mt3Vj4nCImg9GtHoOcer-0"/>
                <mxCell id="mWFIH7FpVcuFvGHkrPF5-0" value="Vaccination Campaign" style="shape=umlFrame;whiteSpace=wrap;html=1;width=240;height=30;" parent="Mt3Vj4nCImg9GtHoOcer-1" vertex="1">
                    <mxGeometry x="80" y="40" width="680" height="1090" as="geometry"/>
                </mxCell>
                <mxCell id="Q4XYGkxrkAq5FaqU1J6R-4" style="edgeStyle=none;html=1;exitX=0.5;exitY=0.5;exitDx=0;exitDy=0;exitPerimeter=0;entryX=0;entryY=0.5;entryDx=0;entryDy=0;endArrow=none;endFill=0;" edge="1" parent="Mt3Vj4nCImg9GtHoOcer-1" source="mWFIH7FpVcuFvGHkrPF5-1" target="Q4XYGkxrkAq5FaqU1J6R-2">
                    <mxGeometry relative="1" as="geometry"/>
                </mxCell>
                <mxCell id="mWFIH7FpVcuFvGHkrPF5-1" value="User" style="shape=umlActor;verticalLabelPosition=bottom;verticalAlign=top;html=1;" parent="Mt3Vj4nCImg9GtHoOcer-1" vertex="1">
                    <mxGeometry x="20" y="180" width="30" height="60" as="geometry"/>
                </mxCell>
                <mxCell id="mWFIH7FpVcuFvGHkrPF5-7" style="edgeStyle=none;html=1;entryX=0.5;entryY=0.5;entryDx=0;entryDy=0;entryPerimeter=0;startArrow=none;startFill=0;endArrow=none;endFill=0;startSize=24;exitX=0;exitY=0.5;exitDx=0;exitDy=0;" parent="Mt3Vj4nCImg9GtHoOcer-1" source="mWFIH7FpVcuFvGHkrPF5-10" target="mWFIH7FpVcuFvGHkrPF5-1" edge="1">
                    <mxGeometry relative="1" as="geometry"/>
                </mxCell>
                <mxCell id="mWFIH7FpVcuFvGHkrPF5-10" value="Register" style="ellipse;whiteSpace=wrap;html=1;" parent="Mt3Vj4nCImg9GtHoOcer-1" vertex="1">
                    <mxGeometry x="370" y="120" width="140" height="70" as="geometry"/>
                </mxCell>
                <mxCell id="Q4XYGkxrkAq5FaqU1J6R-2" value="Report side effects" style="ellipse;whiteSpace=wrap;html=1;" vertex="1" parent="Mt3Vj4nCImg9GtHoOcer-1">
                    <mxGeometry x="370" y="240" width="140" height="70" as="geometry"/>
                </mxCell>
                <mxCell id="Q4XYGkxrkAq5FaqU1J6R-26" style="edgeStyle=none;html=1;exitX=0.5;exitY=0.5;exitDx=0;exitDy=0;exitPerimeter=0;entryX=1;entryY=0.5;entryDx=0;entryDy=0;endArrow=none;endFill=0;" edge="1" parent="Mt3Vj4nCImg9GtHoOcer-1" source="Q4XYGkxrkAq5FaqU1J6R-5" target="Q4XYGkxrkAq5FaqU1J6R-8">
                    <mxGeometry relative="1" as="geometry"/>
                </mxCell>
                <mxCell id="Q4XYGkxrkAq5FaqU1J6R-27" style="edgeStyle=none;html=1;exitX=0.5;exitY=0.5;exitDx=0;exitDy=0;exitPerimeter=0;entryX=1;entryY=0.5;entryDx=0;entryDy=0;endArrow=none;endFill=0;" edge="1" parent="Mt3Vj4nCImg9GtHoOcer-1" source="Q4XYGkxrkAq5FaqU1J6R-5" target="Q4XYGkxrkAq5FaqU1J6R-7">
                    <mxGeometry relative="1" as="geometry"/>
                </mxCell>
                <mxCell id="Q4XYGkxrkAq5FaqU1J6R-28" style="edgeStyle=none;html=1;exitX=0.5;exitY=0.5;exitDx=0;exitDy=0;exitPerimeter=0;entryX=1;entryY=0.5;entryDx=0;entryDy=0;endArrow=none;endFill=0;" edge="1" parent="Mt3Vj4nCImg9GtHoOcer-1" source="Q4XYGkxrkAq5FaqU1J6R-5" target="Q4XYGkxrkAq5FaqU1J6R-6">
                    <mxGeometry relative="1" as="geometry"/>
                </mxCell>
                <mxCell id="Q4XYGkxrkAq5FaqU1J6R-5" value="Manager" style="shape=umlActor;verticalLabelPosition=bottom;verticalAlign=top;html=1;" vertex="1" parent="Mt3Vj4nCImg9GtHoOcer-1">
                    <mxGeometry x="780" y="650" width="30" height="60" as="geometry"/>
                </mxCell>
                <mxCell id="Q4XYGkxrkAq5FaqU1J6R-6" value="Create centers" style="ellipse;whiteSpace=wrap;html=1;" vertex="1" parent="Mt3Vj4nCImg9GtHoOcer-1">
                    <mxGeometry x="510" y="850" width="140" height="70" as="geometry"/>
                </mxCell>
                <mxCell id="Q4XYGkxrkAq5FaqU1J6R-7" value="View region statistics" style="ellipse;whiteSpace=wrap;html=1;" vertex="1" parent="Mt3Vj4nCImg9GtHoOcer-1">
                    <mxGeometry x="580" y="700" width="140" height="70" as="geometry"/>
                </mxCell>
                <mxCell id="Q4XYGkxrkAq5FaqU1J6R-8" value="Check users status" style="ellipse;whiteSpace=wrap;html=1;" vertex="1" parent="Mt3Vj4nCImg9GtHoOcer-1">
                    <mxGeometry x="600" y="580" width="140" height="70" as="geometry"/>
                </mxCell>
                <mxCell id="Q4XYGkxrkAq5FaqU1J6R-21" style="edgeStyle=none;html=1;exitX=0.5;exitY=0.5;exitDx=0;exitDy=0;exitPerimeter=0;entryX=0;entryY=0.5;entryDx=0;entryDy=0;endArrow=none;endFill=0;" edge="1" parent="Mt3Vj4nCImg9GtHoOcer-1" source="Q4XYGkxrkAq5FaqU1J6R-9" target="Q4XYGkxrkAq5FaqU1J6R-11">
                    <mxGeometry relative="1" as="geometry"/>
                </mxCell>
                <mxCell id="Q4XYGkxrkAq5FaqU1J6R-22" style="edgeStyle=none;html=1;exitX=0.5;exitY=0.5;exitDx=0;exitDy=0;exitPerimeter=0;entryX=0;entryY=0.5;entryDx=0;entryDy=0;endArrow=none;endFill=0;" edge="1" parent="Mt3Vj4nCImg9GtHoOcer-1" source="Q4XYGkxrkAq5FaqU1J6R-9" target="Q4XYGkxrkAq5FaqU1J6R-10">
                    <mxGeometry relative="1" as="geometry"/>
                </mxCell>
                <mxCell id="Q4XYGkxrkAq5FaqU1J6R-9" value="Admin" style="shape=umlActor;verticalLabelPosition=bottom;verticalAlign=top;html=1;" vertex="1" parent="Mt3Vj4nCImg9GtHoOcer-1">
                    <mxGeometry x="20" y="660" width="30" height="60" as="geometry"/>
                </mxCell>
                <mxCell id="Q4XYGkxrkAq5FaqU1J6R-10" value="View all statistics" style="ellipse;whiteSpace=wrap;html=1;" vertex="1" parent="Mt3Vj4nCImg9GtHoOcer-1">
                    <mxGeometry x="200" y="840" width="140" height="70" as="geometry"/>
                </mxCell>
                <mxCell id="Q4XYGkxrkAq5FaqU1J6R-11" value="Create managers" style="ellipse;whiteSpace=wrap;html=1;" vertex="1" parent="Mt3Vj4nCImg9GtHoOcer-1">
                    <mxGeometry x="140" y="680" width="140" height="70" as="geometry"/>
                </mxCell>
                <mxCell id="Q4XYGkxrkAq5FaqU1J6R-12" value="Authentication" style="ellipse;whiteSpace=wrap;html=1;" vertex="1" parent="Mt3Vj4nCImg9GtHoOcer-1">
                    <mxGeometry x="370" y="540" width="140" height="70" as="geometry"/>
                </mxCell>
                <mxCell id="Q4XYGkxrkAq5FaqU1J6R-13" value="Verification" style="ellipse;whiteSpace=wrap;html=1;" vertex="1" parent="Mt3Vj4nCImg9GtHoOcer-1">
                    <mxGeometry x="160" y="380" width="140" height="70" as="geometry"/>
                </mxCell>
                <mxCell id="Q4XYGkxrkAq5FaqU1J6R-14" value="Error" style="ellipse;whiteSpace=wrap;html=1;" vertex="1" parent="Mt3Vj4nCImg9GtHoOcer-1">
                    <mxGeometry x="540" y="380" width="140" height="70" as="geometry"/>
                </mxCell>
                <mxCell id="Q4XYGkxrkAq5FaqU1J6R-15" value="&amp;lt;&amp;lt;extend&amp;gt;&amp;gt;" style="html=1;verticalAlign=bottom;labelBackgroundColor=none;endArrow=open;endFill=0;dashed=1;startSize=24;exitX=0.5;exitY=1;exitDx=0;exitDy=0;entryX=0.5;entryY=0;entryDx=0;entryDy=0;" edge="1" parent="Mt3Vj4nCImg9GtHoOcer-1" source="Q4XYGkxrkAq5FaqU1J6R-14" target="Q4XYGkxrkAq5FaqU1J6R-12">
                    <mxGeometry width="160" relative="1" as="geometry">
                        <mxPoint x="220" y="460" as="sourcePoint"/>
                        <mxPoint x="380" y="460" as="targetPoint"/>
                    </mxGeometry>
                </mxCell>
                <mxCell id="Q4XYGkxrkAq5FaqU1J6R-16" value="&amp;lt;&amp;lt;include&amp;gt;&amp;gt;" style="html=1;verticalAlign=bottom;labelBackgroundColor=none;endArrow=none;endFill=0;dashed=1;startSize=6;exitX=0.5;exitY=1;exitDx=0;exitDy=0;entryX=0.5;entryY=0;entryDx=0;entryDy=0;startArrow=open;startFill=0;" edge="1" parent="Mt3Vj4nCImg9GtHoOcer-1" source="Q4XYGkxrkAq5FaqU1J6R-13" target="Q4XYGkxrkAq5FaqU1J6R-12">
                    <mxGeometry width="160" relative="1" as="geometry">
                        <mxPoint x="220" y="460" as="sourcePoint"/>
                        <mxPoint x="380" y="460" as="targetPoint"/>
                    </mxGeometry>
                </mxCell>
                <mxCell id="Q4XYGkxrkAq5FaqU1J6R-19" value="&amp;lt;&amp;lt;include&amp;gt;&amp;gt;" style="html=1;verticalAlign=bottom;labelBackgroundColor=none;endArrow=none;endFill=0;dashed=1;startSize=6;exitX=0;exitY=0.5;exitDx=0;exitDy=0;entryX=0.5;entryY=0;entryDx=0;entryDy=0;startArrow=open;startFill=0;" edge="1" parent="Mt3Vj4nCImg9GtHoOcer-1" source="Q4XYGkxrkAq5FaqU1J6R-12" target="Q4XYGkxrkAq5FaqU1J6R-11">
                    <mxGeometry width="160" relative="1" as="geometry">
                        <mxPoint x="150" y="600" as="sourcePoint"/>
                        <mxPoint x="360" y="690" as="targetPoint"/>
                    </mxGeometry>
                </mxCell>
                <mxCell id="Q4XYGkxrkAq5FaqU1J6R-20" value="&amp;lt;&amp;lt;include&amp;gt;&amp;gt;" style="html=1;verticalAlign=bottom;labelBackgroundColor=none;endArrow=none;endFill=0;dashed=1;startSize=6;entryX=0.5;entryY=0;entryDx=0;entryDy=0;startArrow=open;startFill=0;" edge="1" parent="Mt3Vj4nCImg9GtHoOcer-1" target="Q4XYGkxrkAq5FaqU1J6R-10">
                    <mxGeometry width="160" relative="1" as="geometry">
                        <mxPoint x="370" y="580" as="sourcePoint"/>
                        <mxPoint x="270" y="785" as="targetPoint"/>
                    </mxGeometry>
                </mxCell>
                <mxCell id="Q4XYGkxrkAq5FaqU1J6R-23" value="&amp;lt;&amp;lt;include&amp;gt;&amp;gt;" style="html=1;verticalAlign=bottom;labelBackgroundColor=none;endArrow=none;endFill=0;dashed=1;startSize=6;entryX=0.5;entryY=0;entryDx=0;entryDy=0;startArrow=open;startFill=0;exitX=1;exitY=0.5;exitDx=0;exitDy=0;" edge="1" parent="Mt3Vj4nCImg9GtHoOcer-1" source="Q4XYGkxrkAq5FaqU1J6R-12" target="Q4XYGkxrkAq5FaqU1J6R-8">
                    <mxGeometry width="160" relative="1" as="geometry">
                        <mxPoint x="490" y="640" as="sourcePoint"/>
                        <mxPoint x="390" y="900" as="targetPoint"/>
                    </mxGeometry>
                </mxCell>
                <mxCell id="Q4XYGkxrkAq5FaqU1J6R-24" value="&amp;lt;&amp;lt;include&amp;gt;&amp;gt;" style="html=1;verticalAlign=bottom;labelBackgroundColor=none;endArrow=none;endFill=0;dashed=1;startSize=6;entryX=0.5;entryY=0;entryDx=0;entryDy=0;startArrow=open;startFill=0;exitX=1;exitY=0.5;exitDx=0;exitDy=0;" edge="1" parent="Mt3Vj4nCImg9GtHoOcer-1" source="Q4XYGkxrkAq5FaqU1J6R-12" target="Q4XYGkxrkAq5FaqU1J6R-7">
                    <mxGeometry width="160" relative="1" as="geometry">
                        <mxPoint x="414" y="680" as="sourcePoint"/>
                        <mxPoint x="514" y="785" as="targetPoint"/>
                    </mxGeometry>
                </mxCell>
                <mxCell id="Q4XYGkxrkAq5FaqU1J6R-25" value="&amp;lt;&amp;lt;include&amp;gt;&amp;gt;" style="html=1;verticalAlign=bottom;labelBackgroundColor=none;endArrow=none;endFill=0;dashed=1;startSize=6;entryX=0.5;entryY=0;entryDx=0;entryDy=0;startArrow=open;startFill=0;" edge="1" parent="Mt3Vj4nCImg9GtHoOcer-1" target="Q4XYGkxrkAq5FaqU1J6R-6">
                    <mxGeometry width="160" relative="1" as="geometry">
                        <mxPoint x="510" y="580" as="sourcePoint"/>
                        <mxPoint x="560" y="792.5" as="targetPoint"/>
                    </mxGeometry>
                </mxCell>
            </root>
        </mxGraphModel>
    </diagram>
    <diagram id="7Mymjm3pnBCrwrJU56AU" name="Deploiement">
        <mxGraphModel dx="990" dy="553" grid="1" gridSize="10" guides="1" tooltips="1" connect="1" arrows="1" fold="1" page="1" pageScale="1" pageWidth="827" pageHeight="1169" background="#ffffff" math="0" shadow="0">
            <root>
                <mxCell id="qZOO9Gd-SAxHM6C3LeqT-0"/>
                <mxCell id="qZOO9Gd-SAxHM6C3LeqT-1" parent="qZOO9Gd-SAxHM6C3LeqT-0"/>
                <mxCell id="OI812oYF-2XfqzLMmUWD-0" value="Database server" style="verticalAlign=top;align=left;spacingTop=8;spacingLeft=2;spacingRight=12;shape=cube;size=10;direction=south;fontStyle=4;html=1;" vertex="1" parent="qZOO9Gd-SAxHM6C3LeqT-1">
                    <mxGeometry x="80" y="60" width="220" height="230" as="geometry"/>
                </mxCell>
                <mxCell id="OI812oYF-2XfqzLMmUWD-12" style="edgeStyle=none;html=1;exitX=0;exitY=0;exitDx=0;exitDy=105;exitPerimeter=0;entryX=1;entryY=0.477;entryDx=0;entryDy=0;entryPerimeter=0;endArrow=none;endFill=0;" edge="1" parent="qZOO9Gd-SAxHM6C3LeqT-1" source="OI812oYF-2XfqzLMmUWD-1" target="OI812oYF-2XfqzLMmUWD-0">
                    <mxGeometry relative="1" as="geometry"/>
                </mxCell>
                <mxCell id="OI812oYF-2XfqzLMmUWD-1" value="Backend server" style="verticalAlign=top;align=left;spacingTop=8;spacingLeft=2;spacingRight=12;shape=cube;size=10;direction=south;fontStyle=4;html=1;" vertex="1" parent="qZOO9Gd-SAxHM6C3LeqT-1">
                    <mxGeometry x="80" y="360" width="220" height="230" as="geometry"/>
                </mxCell>
                <mxCell id="OI812oYF-2XfqzLMmUWD-10" style="edgeStyle=none;html=1;entryX=0.009;entryY=0.509;entryDx=0;entryDy=0;entryPerimeter=0;endArrow=none;endFill=0;" edge="1" parent="qZOO9Gd-SAxHM6C3LeqT-1" source="OI812oYF-2XfqzLMmUWD-2" target="OI812oYF-2XfqzLMmUWD-4">
                    <mxGeometry relative="1" as="geometry"/>
                </mxCell>
                <mxCell id="OI812oYF-2XfqzLMmUWD-2" value="Client" style="verticalAlign=top;align=left;spacingTop=8;spacingLeft=2;spacingRight=12;shape=cube;size=10;direction=south;fontStyle=4;html=1;" vertex="1" parent="qZOO9Gd-SAxHM6C3LeqT-1">
                    <mxGeometry x="540" y="50" width="220" height="230" as="geometry"/>
                </mxCell>
                <mxCell id="OI812oYF-2XfqzLMmUWD-3" value="MongoDB" style="shape=module;align=left;spacingLeft=20;align=center;verticalAlign=top;" vertex="1" parent="qZOO9Gd-SAxHM6C3LeqT-1">
                    <mxGeometry x="140" y="150" width="100" height="50" as="geometry"/>
                </mxCell>
                <mxCell id="OI812oYF-2XfqzLMmUWD-11" style="edgeStyle=none;html=1;endArrow=none;endFill=0;exitX=0;exitY=0;exitDx=120;exitDy=220;exitPerimeter=0;" edge="1" parent="qZOO9Gd-SAxHM6C3LeqT-1" source="OI812oYF-2XfqzLMmUWD-4">
                    <mxGeometry relative="1" as="geometry">
                        <mxPoint x="300" y="480" as="targetPoint"/>
                    </mxGeometry>
                </mxCell>
                <mxCell id="OI812oYF-2XfqzLMmUWD-4" value="Frontend server" style="verticalAlign=top;align=left;spacingTop=8;spacingLeft=2;spacingRight=12;shape=cube;size=10;direction=south;fontStyle=4;html=1;" vertex="1" parent="qZOO9Gd-SAxHM6C3LeqT-1">
                    <mxGeometry x="540" y="360" width="220" height="230" as="geometry"/>
                </mxCell>
                <mxCell id="OI812oYF-2XfqzLMmUWD-5" value="Browser" style="shape=module;align=left;spacingLeft=20;align=center;verticalAlign=top;" vertex="1" parent="qZOO9Gd-SAxHM6C3LeqT-1">
                    <mxGeometry x="600" y="140" width="100" height="50" as="geometry"/>
                </mxCell>
                <mxCell id="OI812oYF-2XfqzLMmUWD-6" value="App" style="shape=module;align=left;spacingLeft=20;align=center;verticalAlign=top;" vertex="1" parent="qZOO9Gd-SAxHM6C3LeqT-1">
                    <mxGeometry x="600" y="420" width="100" height="50" as="geometry"/>
                </mxCell>
                <mxCell id="OI812oYF-2XfqzLMmUWD-7" value="API" style="shape=module;align=left;spacingLeft=20;align=center;verticalAlign=top;" vertex="1" parent="qZOO9Gd-SAxHM6C3LeqT-1">
                    <mxGeometry x="135" y="420" width="100" height="50" as="geometry"/>
                </mxCell>
                <mxCell id="OI812oYF-2XfqzLMmUWD-8" value="Node.js" style="shape=note2;boundedLbl=1;whiteSpace=wrap;html=1;size=25;verticalAlign=top;align=center;" vertex="1" parent="qZOO9Gd-SAxHM6C3LeqT-1">
                    <mxGeometry x="145" y="480" width="90" height="70" as="geometry"/>
                </mxCell>
                <mxCell id="OI812oYF-2XfqzLMmUWD-9" value="React.js" style="shape=note2;boundedLbl=1;whiteSpace=wrap;html=1;size=25;verticalAlign=top;align=center;" vertex="1" parent="qZOO9Gd-SAxHM6C3LeqT-1">
                    <mxGeometry x="610" y="480" width="90" height="70" as="geometry"/>
                </mxCell>
            </root>
        </mxGraphModel>
    </diagram>
</mxfile>